<svg width="145" height="36" viewBox="0 0 145 36" fill="none" xmlns="http://www.w3.org/2000/svg">
<path fill-rule="evenodd" clip-rule="evenodd" d="M140.443 8.44512C138.502 8.44512 136.845 6.83593 136.845 4.8481C136.845 2.86027 138.502 1.25107 140.443 1.25107C142.43 1.25107 144.04 2.86027 144.04 4.8481C144.04 6.83593 142.43 8.44512 140.443 8.44512ZM143.455 34.5987H137.446V11.7661H143.455V34.5987ZM131.438 34.5987H125.429V32.2605C123.869 34.1093 121.179 35.1996 118.2 35.1996C114.56 35.1996 110.258 32.7345 110.258 27.6148C110.258 22.258 114.56 20.3144 118.2 20.3144C121.226 20.3144 123.921 21.2625 125.434 23.1113V19.9352C125.434 17.6123 123.448 16.0954 120.422 16.0954C117.964 16.0954 115.91 16.8142 113.971 18.6156L111.234 14.6953C114.023 12.2302 117.869 11.1652 121.462 11.1652C126.663 11.1652 131.438 13.2511 131.438 19.8404V34.5987ZM125.434 29.1317V26.2874C124.441 24.9601 122.55 24.2964 120.611 24.2964C118.247 24.2964 116.309 25.5764 116.309 27.757C116.309 29.8902 118.247 31.1227 120.611 31.1227C122.55 31.1227 124.441 30.4591 125.434 29.1317ZM102.374 27.5189C100.292 27.5189 98.5408 29.2701 98.5408 31.3526C98.5408 33.4351 100.292 35.1862 102.374 35.1862C104.457 35.1862 106.208 33.4351 106.208 31.3526C106.208 29.2701 104.457 27.5189 102.374 27.5189Z" fill="url(#paint0_linear_64_937)"/>
<path d="M82.3176 34.5987H74.8069V1.25109H98.5408V7.5601H82.3282V14.6316H98.5408V20.9292H82.3176V34.5987Z" fill="white"/>
<path d="M35.4682 17.9187C35.4682 8.25078 42.5811 0.447355 52.7325 0.447355C62.6766 0.447355 69.4442 7.90549 69.4442 18.8165V20.9292H44.6528C45.2053 25.1417 48.589 28.4844 54.2517 28.4844C57.1848 28.4844 60.61 27.3771 62.7854 25.5107L66.7704 31.0622C63.3848 34.0148 58.3348 35.4592 53.2849 35.4592C43.1336 35.4592 35.4682 28.6225 35.4682 17.9187ZM52.7325 7.4221C47.277 7.4221 44.929 11.4557 44.5147 14.7704H60.9502C60.743 11.5938 58.5332 7.4221 52.7325 7.4221Z" fill="white"/>
<path fill-rule="evenodd" clip-rule="evenodd" d="M21.6309 17.9249L33.4979 34.5987L23.7339 34.5987L11.867 17.9249L16.7489 11.0654L21.6309 17.9249ZM24.0526 14.5223L33.4979 1.25109H23.7339L19.1512 7.69006L24.0526 14.5223Z" fill="white"/>
<path d="M11.867 17.9249L3.8147e-06 1.25109H9.76395L21.6309 17.9249L9.76395 34.5987H3.8147e-06L11.867 17.9249Z" fill="white"/>
<defs>
<linearGradient id="paint0_linear_64_937" x1="102.296" y1="31.3693" x2="140.639" y2="4.6645" gradientUnits="userSpaceOnUse">
<stop stop-color="#01C9BD"/>
<stop offset="1" stop-color="#018DDC"/>
</linearGradient>
</defs>
</svg>
